<svg width="376" height="376" viewBox="0 0 376 376" fill="none" xmlns="http://www.w3.org/2000/svg">
<g filter="url(#filter0_d_305_12)">
<rect x="16" y="134" width="360" height="100" fill="#3880FF"/>
<rect x="146" y="364" width="360" height="100" transform="rotate(-90 146 364)" fill="#3880FF"/>
</g>
<g filter="url(#filter1_d_305_12)">
<path d="M76.648 208V163.2H83.56V201.344H113.512V208H76.648ZM134.148 208V163.2H140.996L177.348 199.872L176.964 200.448C176.751 199.168 176.559 197.803 176.388 196.352C176.26 194.859 176.153 193.344 176.068 191.808C175.983 190.229 175.897 188.651 175.812 187.072C175.769 185.451 175.727 183.872 175.684 182.336C175.684 180.8 175.684 179.328 175.684 177.92V163.2H182.596V208H175.62L139.716 172.672L139.78 171.776C139.865 172.544 139.951 173.461 140.036 174.528C140.121 175.595 140.228 176.747 140.356 177.984C140.484 179.221 140.591 180.501 140.676 181.824C140.804 183.104 140.889 184.405 140.932 185.728C141.017 187.008 141.06 188.224 141.06 189.376V208H134.148ZM228.298 208.64C224.714 208.64 221.343 208.107 218.186 207.04C215.071 205.931 212.319 204.373 209.93 202.368C207.583 200.32 205.749 197.888 204.426 195.072C203.103 192.213 202.442 189.056 202.442 185.6C202.442 182.315 203.125 179.285 204.49 176.512C205.898 173.739 207.797 171.328 210.186 169.28C212.575 167.232 215.327 165.653 218.442 164.544C221.557 163.392 224.842 162.816 228.298 162.816C231.199 162.816 233.973 163.2 236.618 163.968C239.263 164.693 241.653 165.632 243.786 166.784C245.962 167.893 247.69 169.067 248.97 170.304L244.874 176.128C243.338 174.848 241.695 173.717 239.946 172.736C238.197 171.755 236.298 170.987 234.25 170.432C232.245 169.877 230.047 169.6 227.658 169.6C225.397 169.6 223.178 169.984 221.002 170.752C218.869 171.477 216.927 172.544 215.178 173.952C213.429 175.317 212.042 177.003 211.018 179.008C209.994 180.971 209.482 183.168 209.482 185.6C209.482 188.288 210.015 190.656 211.082 192.704C212.149 194.709 213.599 196.395 215.434 197.76C217.269 199.125 219.338 200.171 221.642 200.896C223.946 201.579 226.335 201.92 228.81 201.92C231.37 201.92 233.653 201.6 235.658 200.96C237.663 200.277 239.455 199.445 241.034 198.464C242.613 197.483 244.042 196.523 245.322 195.584L248.65 201.344C247.455 202.325 245.813 203.392 243.722 204.544C241.674 205.696 239.327 206.677 236.682 207.488C234.079 208.256 231.285 208.64 228.298 208.64ZM273.639 196.864V188.992L306.663 163.2H316.903L273.639 196.864ZM268.711 208V163.2H275.623V208H268.711ZM306.791 208L287.143 183.744L291.431 178.24L316.007 208H306.791Z" fill="black"/>
</g>
<defs>
<filter id="filter0_d_305_12" x="0" y="0" width="376" height="376" filterUnits="userSpaceOnUse" color-interpolation-filters="sRGB">
<feFlood flood-opacity="0" result="BackgroundImageFix"/>
<feColorMatrix in="SourceAlpha" type="matrix" values="0 0 0 0 0 0 0 0 0 0 0 0 0 0 0 0 0 0 127 0" result="hardAlpha"/>
<feOffset dx="-8" dy="4"/>
<feGaussianBlur stdDeviation="4"/>
<feComposite in2="hardAlpha" operator="out"/>
<feColorMatrix type="matrix" values="0 0 0 0 0 0 0 0 0 0 0 0 0 0 0 0 0 0 0.5 0"/>
<feBlend mode="normal" in2="BackgroundImageFix" result="effect1_dropShadow_305_12"/>
<feBlend mode="normal" in="SourceGraphic" in2="effect1_dropShadow_305_12" result="shape"/>
</filter>
<filter id="filter1_d_305_12" x="72.6479" y="162.816" width="244.255" height="49.824" filterUnits="userSpaceOnUse" color-interpolation-filters="sRGB">
<feFlood flood-opacity="0" result="BackgroundImageFix"/>
<feColorMatrix in="SourceAlpha" type="matrix" values="0 0 0 0 0 0 0 0 0 0 0 0 0 0 0 0 0 0 127 0" result="hardAlpha"/>
<feOffset dx="-2" dy="2"/>
<feGaussianBlur stdDeviation="1"/>
<feComposite in2="hardAlpha" operator="out"/>
<feColorMatrix type="matrix" values="0 0 0 0 1 0 0 0 0 1 0 0 0 0 1 0 0 0 0.5 0"/>
<feBlend mode="normal" in2="BackgroundImageFix" result="effect1_dropShadow_305_12"/>
<feBlend mode="normal" in="SourceGraphic" in2="effect1_dropShadow_305_12" result="shape"/>
</filter>
</defs>
</svg>
